<svg viewBox="0 0 141.73 141.73" xmlns="http://www.w3.org/2000/svg"><g fill="#a21c26"><path d="m106.7 87.31a1.4 1.4 0 0 0 -1.93-.44l-6.63 4.13a.84.84 0 0 1 -1.14-.21c-1.68-2.48-5-7.41-10-15.06a.85.85 0 0 1 .2-1.14l8.14-6.2a1.4 1.4 0 0 0 .54-.93 1.43 1.43 0 0 0 -.27-1 1.4 1.4 0 0 0 -.93-.54 1.38 1.38 0 0 0 -1 .28l-8.14 6.2a3.65 3.65 0 0 0 -1.41 2.49h-17.87a1.34 1.34 0 0 0 -.59.13l-1.51.71h-6.63a3.61 3.61 0 0 0 -1.3-3.06l-8.95-7.37a1.41 1.41 0 0 0 -2 .19 1.38 1.38 0 0 0 -.31 1 1.34 1.34 0 0 0 .5.94l8.93 7.36a.83.83 0 0 1 .15 1.13l-9.31 13.3a.84.84 0 0 1 -1.11.25l-6.13-3.47a1.41 1.41 0 0 0 -1.91.53 1.34 1.34 0 0 0 -.13 1.07 1.4 1.4 0 0 0 .66.85l6.2 3.5a3.25 3.25 0 0 0 1.8.48 3.52 3.52 0 0 0 1.69-.44l3.34 3.47a3.92 3.92 0 0 0 -.68 2.72 4 4 0 0 0 1.58 2.73 3.92 3.92 0 0 0 2 .76v.37a4.17 4.17 0 0 0 1.58 2.82 4.12 4.12 0 0 0 2.21.88 1.69 1.69 0 0 0 0 .23 4.12 4.12 0 0 0 5.32 3.61 4.06 4.06 0 0 0 1.28 1.8 4.13 4.13 0 0 0 5.61-.43l.18-.2a4.4 4.4 0 0 0 5.89-1.2 4.29 4.29 0 0 0 .72-1.67l.6.39a4.5 4.5 0 0 0 6.88-3 4.53 4.53 0 0 0 6-3.43l.3.2a4.49 4.49 0 0 0 3.44.58 4.42 4.42 0 0 0 2.77-2.12 4.37 4.37 0 0 0 -1.5-5.81l-.64-.41 1.63-1.66a3.61 3.61 0 0 0 2.86 1.38 3.65 3.65 0 0 0 1.95-.56l6.63-4.17a1.4 1.4 0 0 0 .44-1.96zm-30.39 4.63a1.4 1.4 0 0 0 .41 1.94l8.57 5.59a1.76 1.76 0 0 1 .51 2.4 1.75 1.75 0 0 1 -2.44.5l-8.74-5.87a1.41 1.41 0 0 0 -2 .38 1.39 1.39 0 0 0 -.21 1.05 1.37 1.37 0 0 0 .59.89l6.24 4.2a1.7 1.7 0 0 1 .41 2.44 1.72 1.72 0 0 1 -2.29.41l-5.36-3.48-.08-.15h-.16l-.37-.24a1.4 1.4 0 1 0 -1.52 2.36l2 1.26a1.6 1.6 0 0 1 -1.7 2.7l-.3-.18a3.7 3.7 0 0 0 0-.66 4.18 4.18 0 0 0 -1.56-2.93 3.9 3.9 0 0 0 -.93-.54 4.11 4.11 0 0 0 1-3 4.06 4.06 0 0 0 -1.19-2.61l-.36-.29h-.06l-.28-.23a4.12 4.12 0 0 0 -4.74.15 4.21 4.21 0 0 0 -4.54-2.2 3.91 3.91 0 0 0 -5.55-2.32l-3.43-3.57 8.07-11.42h2a3 3 0 0 0 -1.39 2.48v6.16a4.16 4.16 0 0 0 8.32 0v-1.66h7.61a4.26 4.26 0 0 1 2.3.67l17.18 10.83a1.57 1.57 0 0 1 -.46 2.84 1.54 1.54 0 0 1 -1.22-.21l-12.39-8.1a1.4 1.4 0 0 0 -1.94.41zm-24.31 4.99.59-.69a1.11 1.11 0 0 1 .87-.4 1.15 1.15 0 0 1 .7.23 1.13 1.13 0 0 1 .44.77 1.15 1.15 0 0 1 -.24.86l-.56.7a1.17 1.17 0 0 1 -2.06-.59 1.17 1.17 0 0 1 .26-.88zm3.61 3.71 1.29-1.59a1.45 1.45 0 0 1 2-.23 1.43 1.43 0 0 1 .2 2.08l-1.36 1.53a1.38 1.38 0 0 1 -1.89.18 1.42 1.42 0 0 1 -.52-.94 1.37 1.37 0 0 1 .25-1.03zm3.83 4.08 3.8-4.3a1.3 1.3 0 0 1 1-.45 1.34 1.34 0 0 1 .89.35 1.26 1.26 0 0 1 .47.92 1.31 1.31 0 0 1 -.33 1l-3.84 4.26a1.33 1.33 0 0 1 -1.83.13 1.24 1.24 0 0 1 -.47-.91 1.3 1.3 0 0 1 .28-1zm17.2-20.92a7.12 7.12 0 0 0 -3.8-1.1h-9a1.4 1.4 0 0 0 -1.4 1.4v3a1.36 1.36 0 1 1 -2.71 0v-6.1a.14.14 0 0 1 .09-.14l6.77-3.19h18.28c2.29 3.45 5.87 8.85 8.32 12.52l-2.45 2.5zm-12.15 23.44.3-.33a1.31 1.31 0 0 1 2.29.78 1.27 1.27 0 0 1 -.34 1l-.31.34a1.33 1.33 0 0 1 -1.79.13 1.32 1.32 0 0 1 -.15-1.9z"/><path d="m41.58 87.62a1.41 1.41 0 0 0 1.16-.62l4.81-7a1.39 1.39 0 0 0 .22-1 1.42 1.42 0 0 0 -.58-.9 1.4 1.4 0 0 0 -1.95.37l-4.81 7a1.39 1.39 0 0 0 -.22 1 1.34 1.34 0 0 0 .58.9 1.4 1.4 0 0 0 .79.25z"/><path d="m95.31 78.55a1.42 1.42 0 0 0 -1.06.18 1.41 1.41 0 0 0 -.45 1.93l4.55 7.34a1.4 1.4 0 0 0 2.38-1.49l-4.55-7.28a1.4 1.4 0 0 0 -.87-.68z"/><path d="m71.38 71.92a16 16 0 0 0 16-16 16.34 16.34 0 0 0 -.23-2.71 1.4 1.4 0 0 0 -2.53-.57 1.36 1.36 0 0 0 -.23 1 14.11 14.11 0 0 1 .14 2.36 13.14 13.14 0 1 1 -3.85-9.29 1.4 1.4 0 0 0 2 0 1.43 1.43 0 0 0 .41-1 1.39 1.39 0 0 0 -.41-1 15.95 15.95 0 1 0 -11.3 27.21z"/><path d="m62.69 55.74a1.41 1.41 0 0 0 -2 .13 1.35 1.35 0 0 0 -.34 1 1.38 1.38 0 0 0 .47 1l9.63 8.45a1.4 1.4 0 0 0 .92.35h.13a1.37 1.37 0 0 0 1-.52l14.5-18.44a1.4 1.4 0 0 0 -2.17-1.71l-13.62 17.22z"/></g></svg>