<svg viewBox="0 0 141.73 141.73" xmlns="http://www.w3.org/2000/svg"><g fill="#a21c26"><path d="m44.85 50.11h1.91a1.41 1.41 0 0 0 1.24-.81 1.5 1.5 0 0 0 .14-.61 1.29 1.29 0 0 0 -.11-.55 1.42 1.42 0 0 0 -1.31-.87h-1.87a1.35 1.35 0 0 1 -1.31-1.07 1.24 1.24 0 0 1 0-.27 1.32 1.32 0 0 1 .7-1.16 1.27 1.27 0 0 1 .64-.18h4.56a2.93 2.93 0 0 1 2.79 2.24l9.23 43.4a5.14 5.14 0 0 0 5 4h35.12a1.43 1.43 0 0 0 1.42-1.4 1.38 1.38 0 0 0 -.31-.87l-.1-.13-.08-.07a1.42 1.42 0 0 0 -.93-.35h-35.16a2.26 2.26 0 0 1 -1.6-.68l-.1-.1a2.27 2.27 0 0 1 -.51-1l-1-4.87v-.12h38.9a7.64 7.64 0 0 0 7.51-6.33l1.83-12.18a1.41 1.41 0 0 0 -1.19-1.61 1.38 1.38 0 0 0 -1.09.29 1.42 1.42 0 0 0 -.48.74l-1.85 12.18a4.76 4.76 0 0 1 -3 3.76 4.88 4.88 0 0 1 -1.7.31h-39.6l-1.5-7h41.43a1.39 1.39 0 0 0 1.13-.6 1.37 1.37 0 0 0 .29-.82 1.42 1.42 0 0 0 -.89-1.38 1.5 1.5 0 0 0 -.55-.11h-42l-1.65-7.77h22.83a1.42 1.42 0 0 0 .59-2.71 1.37 1.37 0 0 0 -.59-.13h-23.45l-1.83-8.6h24.27a1.35 1.35 0 0 0 .76-.25 1.39 1.39 0 0 0 .62-1.14 1.43 1.43 0 0 0 -1.42-1.42h-24.83l-.75-3.63a5.74 5.74 0 0 0 -5.57-4.49h-4.58a4.18 4.18 0 0 0 -3.85 2.54 4.22 4.22 0 0 0 -.34 1.64 4.2 4.2 0 0 0 4.18 4.18z"/><path d="m58.19 95.59a1.42 1.42 0 0 0 -1.42-1.42h-20a1.42 1.42 0 0 0 0 2.84h20a1.42 1.42 0 0 0 1.42-1.42z"/><path d="m110.73 105.19h-11.27l.1-.16a5.91 5.91 0 0 0 .82-3 6 6 0 1 0 -11.95 0 5.83 5.83 0 0 0 .83 3l.09.16h-12.35l.09-.16a5.83 5.83 0 0 0 .83-3 6 6 0 1 0 -11.95 0 5.91 5.91 0 0 0 .82 3l.1.16h-21.89a1.42 1.42 0 1 0 0 2.81h65.71a1.42 1.42 0 0 0 0-2.84zm-19.46-3.13a3.14 3.14 0 1 1 3.14 3.13 3.15 3.15 0 0 1 -3.14-3.13zm-22.42 0a3.14 3.14 0 1 1 3.15 3.13 3.14 3.14 0 0 1 -3.15-3.13z"/><path d="m52.87 73.55a1.42 1.42 0 0 0 -1.42-1.41h-20a1.37 1.37 0 0 0 -1 .41 1.41 1.41 0 0 0 1 2.42h20a1.42 1.42 0 0 0 1.42-1.42z"/><path d="m55.4 85.15a1.36 1.36 0 0 0 .13-.58 1.48 1.48 0 0 0 -1.42-1.42h-20a1.43 1.43 0 0 0 -1.42 1.42 1.48 1.48 0 0 0 .13.58 1.42 1.42 0 0 0 1.29.84h20a1.41 1.41 0 0 0 1.29-.84z"/><path d="m99.14 47.27h-4.24a2.2 2.2 0 0 0 -2.19 2.19v3.89a2.21 2.21 0 0 0 .11.64 2.18 2.18 0 0 0 2.08 1.54h3.59v2.59h-3v-.08a1.41 1.41 0 0 0 -1.68-1 .93.93 0 0 0 -.24.06l-.12.07a1.4 1.4 0 0 0 -.76 1.24v.39a2.1 2.1 0 0 0 .09.58 2.18 2.18 0 0 0 2.12 1.62h4.24a2.17 2.17 0 0 0 2.08-1.54 1.93 1.93 0 0 0 .11-.65v-3.93a2.25 2.25 0 0 0 0-.44 2.2 2.2 0 0 0 -2.15-1.74h-3.63v-2.59h3v.16a1.45 1.45 0 0 0 1.33.93 1.4 1.4 0 0 0 1.17-.65 1.35 1.35 0 0 0 .25-.77v-.32a2.19 2.19 0 0 0 -2.16-2.19z"/><path d="m97 41.48a12.64 12.64 0 1 0 12.64 12.63 12.65 12.65 0 0 0 -12.64-12.63zm9.8 12.63a9.8 9.8 0 1 1 -9.8-9.79 9.82 9.82 0 0 1 9.82 9.79z"/><path d="m80.81 48.11a1.39 1.39 0 0 0 .63.15 1.44 1.44 0 0 0 1.1-.52 1.46 1.46 0 0 0 .17-.26 16 16 0 0 1 26.9-2.58 1.41 1.41 0 0 0 1.56.48 1.37 1.37 0 0 0 .43-.23l.09-.09a1.35 1.35 0 0 0 .28-.33 1.21 1.21 0 0 0 .11-.3.67.67 0 0 0 .06-.21v-.13a1.33 1.33 0 0 0 0-.43 1.43 1.43 0 0 0 -.16-.33l-.09-.17a18.61 18.61 0 0 0 -10.58-6.84h-.17a19.23 19.23 0 0 0 -4.14-.49 17.75 17.75 0 0 0 -2 .11 18.62 18.62 0 0 0 -14.82 10.27 1.09 1.09 0 0 0 -.12.41 1.84 1.84 0 0 0 0 .41 1.35 1.35 0 0 0 .75 1.08z"/></g></svg>