<svg viewBox="0 0 141.73 141.73" xmlns="http://www.w3.org/2000/svg"><g fill="#a21c26"><path d="m77.12 61.82h2.87v2.87h-2.87z" transform="matrix(.70710678 -.70710678 .70710678 .70710678 -21.72 74.08)"/><path d="m96.05 42.03h4.61v2.87h-4.61z" transform="matrix(.70710678 -.70710678 .70710678 .70710678 -1.93 82.27)"/><path d="m80.74 57.34h4.61v2.87h-4.61z" transform="matrix(.70723018 -.70698336 .70698336 .70723018 -17.24 75.92)"/><path d="m90.94 47.13h4.61v2.87h-4.61z" transform="matrix(.70723018 -.70698336 .70698336 .70723018 -7.03 80.15)"/><path d="m85.84 52.23h4.61v2.87h-4.61z" transform="matrix(.70710678 -.70710678 .70710678 .70710678 -12.13 78.05)"/><path d="m101.4 37.54h2.87v2.87h-2.87z" transform="matrix(.70698336 -.70723018 .70723018 .70698336 2.57 84.16)"/><path d="m105.86 69.66a34.23 34.23 0 0 0 -3.33-14.81 1.44 1.44 0 0 0 -2.31-.39l-9 9a1.44 1.44 0 0 0 0 2l3 3a2.87 2.87 0 0 1 -2.07 4.89l-20.52-.35a2.86 2.86 0 0 1 -2.82-2.82l-.31-20.47a2.87 2.87 0 0 1 4.9-2.07l2.94 2.94a1.44 1.44 0 0 0 2 0l9.25-9.24a1.44 1.44 0 0 0 .41-1.24 1.42 1.42 0 0 0 -.76-1.05 34 34 0 0 0 -15.89-3.88 34.48 34.48 0 0 0 -20.5 62.21l-2.18 3.78a4.14 4.14 0 0 0 3.59 6.21h2.84a5 5 0 0 0 4.31-2.49l1.38-2.39a34.44 34.44 0 0 0 21.11 0l1.39 2.39a5 5 0 0 0 4.31 2.49h2.84a4.14 4.14 0 0 0 3.59-6.21l-2.18-3.78a34.64 34.64 0 0 0 14.01-27.72zm-20.86 31.69 1.21-.55.25-.12q.65-.32 1.29-.66l.13-.07c.46-.25.92-.52 1.39-.8l.23-.14 2.07 3.6a1.25 1.25 0 0 1 0 1.27 1.27 1.27 0 0 1 -1.1.63h-2.85a2.12 2.12 0 0 1 -1.83-1l-1.13-2zm1.82-4.1-.12.06-.48.27-.9.46-.74.35-.14.06-.69.31c-.5.22-1 .42-1.51.6a31.73 31.73 0 0 1 -21.7 0c-.51-.18-1-.38-1.51-.59l-.67-.31-.19-.08-.7-.34-.92-.47-.55-.31a31.61 31.61 0 0 1 15.37-59.26 31.3 31.3 0 0 1 12.79 2.7l-1.78 1.78a29.37 29.37 0 1 0 16.56 17.31l1.82-1.79a31.64 31.64 0 0 1 -14 39.28zm-35.64 5.35 2.07-3.6.26.16c.45.27.9.53 1.36.78l.13.06c.43.23.85.45 1.28.66l.26.12 1.2.55.33.14-1.13 2a2.12 2.12 0 0 1 -1.83 1h-2.83a1.27 1.27 0 0 1 -1.1-.63 1.25 1.25 0 0 1 0-1.24zm17.95-58.22a5.73 5.73 0 0 0 -3.5 5.37v.66a19.87 19.87 0 0 0 -14.37 19.25 20.09 20.09 0 0 0 39.11 6.5h1.78a5.72 5.72 0 0 0 5.28-3.5 6 6 0 0 0 .27-.78 26.43 26.43 0 1 1 -26.33-28.64 26.19 26.19 0 0 1 8.79 1.5l-2.8 2.8-1.93-1.93a5.73 5.73 0 0 0 -6.3-1.23zm2.24 42.52a17.24 17.24 0 0 1 -5.68-33.51l.12 7.89a10.06 10.06 0 1 0 13.38 14.72l8.15.12a17.27 17.27 0 0 1 -15.97 10.78zm0-10a7.21 7.21 0 0 1 -5.51-11.9l.08 5.21a5.71 5.71 0 0 0 5.65 5.65h3.34a7.13 7.13 0 0 1 -3.56 1.01zm24.84-10.51-1.94-1.93 2.41-2.4a26.24 26.24 0 0 1 1.11 7.33 5.67 5.67 0 0 0 -1.58-3z"/></g></svg>