<svg viewBox="0 0 141.73 141.73" xmlns="http://www.w3.org/2000/svg"><g fill="#a21c26"><path d="m107 59.06a38.79 38.79 0 0 0 -20-22.25 38.4 38.4 0 1 0 20 22.25zm-.57 12.61a35.77 35.77 0 1 1 -2-11.73 35.84 35.84 0 0 1 2.03 11.73z"/><path d="m70.66 40.32a31.34 31.34 0 1 0 31.34 31.35 31.38 31.38 0 0 0 -31.34-31.35zm20.66 51.19-16.92-4.33 11.17-6.45a1.4 1.4 0 0 0 .36-.3l12.66-15.15v.08a28.35 28.35 0 0 1 -7.26 26.14zm-19.77-37.39a2 2 0 0 0 -.46-.16l-20-3.2.06-.06a28.18 28.18 0 0 1 22.71-7.5l8 16.87zm12 24.62-12.67 7.37-12.67-7.32v-14.63l12.67-7.32 12.68 7.32zm2.68-2.87v-12.51-.21a1.64 1.64 0 0 0 0-.23l-9-19.15h.08a28.56 28.56 0 0 1 20.37 18.39zm-44.23-4.2a28.67 28.67 0 0 1 6.84-18.54l18.1 2.87-10.73 6.2-.14.11a2 2 0 0 0 -.23.2l-13.14 15.49v-.08a28.66 28.66 0 0 1 -.7-6.25zm13.52-4.67v12.57a1.6 1.6 0 0 0 .07.42l6.23 18.94h-.08a28.89 28.89 0 0 1 -18.14-17.86zm14.69 21.82a1.22 1.22 0 0 0 .33.14l18.46 4.73h-.06a28.58 28.58 0 0 1 -24 6l-5.7-17.2z"/><path d="m70.21 62.38-6.87 4a1.35 1.35 0 0 0 -.67 1.16v7.93a1.34 1.34 0 0 0 .68 1.16l6.86 4a1.29 1.29 0 0 0 .67.18 1.39 1.39 0 0 0 .67-.17l6.87-4a1.35 1.35 0 0 0 .67-1.16v-7.97a1.35 1.35 0 0 0 -.67-1.16l-6.87-4a1.39 1.39 0 0 0 -1.34.03zm-4.85 12.28v-6.37l5.52-3.19 5.53 3.19v6.37l-5.53 3.19z"/></g></svg>