<svg viewBox="0 0 141.73 141.73" xmlns="http://www.w3.org/2000/svg"><g fill="#a21c26"><path d="m52.35 81.31a6.52 6.52 0 1 0 -2.83-4.13 6.5 6.5 0 0 0 2.83 4.13zm.7-7.36a3.43 3.43 0 0 1 2.88-1.55 3.45 3.45 0 0 1 3.36 2.73 3.43 3.43 0 0 1 -3.38 4.14 3.36 3.36 0 0 1 -1.87-.56 3.43 3.43 0 0 1 -1-4.76z"/><path d="m89.8 74.05a12.34 12.34 0 0 0 -12.33 12.33 10.19 10.19 0 0 0 10.17 10.17 8.47 8.47 0 0 0 6-2.48 8.39 8.39 0 0 0 2.47-6 1.55 1.55 0 1 0 -3.1 0 5.36 5.36 0 0 1 -5.34 5.34 7.07 7.07 0 0 1 -7.06-7.06 9.24 9.24 0 0 1 9.22-9.23 11.93 11.93 0 0 1 11.92 11.91 15.31 15.31 0 0 1 -15.28 15.29h-47c3.59-4.32 11.23-11.5 22.2-11.5a27.57 27.57 0 0 1 7.83 1.18 1.56 1.56 0 0 0 1.5-.34 1.54 1.54 0 0 0 .5-1.41c0-.13-2-13 3.54-20.48l.56.36a4.28 4.28 0 0 0 2.37.71 4.36 4.36 0 0 0 3.66-2 4.3 4.3 0 0 0 .61-3.28 4.25 4.25 0 0 0 -1.88-2.75l-1.36-.88 12.15-18.6a1.56 1.56 0 0 0 .22-1.17 1.52 1.52 0 0 0 -.67-1 1.59 1.59 0 0 0 -2.15.45l-12.12 18.51-16.19-10.57 6-9.13a1.55 1.55 0 0 0 -.45-2.15 1.6 1.6 0 0 0 -2.15.45l-6 9.24-1.38-.9a4.36 4.36 0 1 0 -4.77 7.3l.55.36c-4.59 8.12-16.8 11.35-17.32 11.48a1.54 1.54 0 0 0 -1.1 1 1.56 1.56 0 0 0 .29 1.47c11.89 14.12 3.87 29.88 1.09 34.44a1.79 1.79 0 0 0 -.2.59v.19a1.56 1.56 0 0 0 .05.36 1.58 1.58 0 0 0 .23.53 1.51 1.51 0 0 0 .45.42 1.72 1.72 0 0 0 .44.19 1.43 1.43 0 0 0 .39.06h50.16a18.41 18.41 0 0 0 18.38-18.4 15 15 0 0 0 -15.1-15zm-35.21-15.62 17.82 11.64c-4.86 6.65-4.63 16.36-4.28 20.36a28.8 28.8 0 0 0 -6.53-.73c-7.15 0-13.84 2.66-19.88 7.89 2.16-7 3.13-17.23-4.06-27.06 3.81-1.29 12.8-4.98 16.93-12.1zm-1.83-6.43a1.23 1.23 0 0 1 .79-.54h.26a1.22 1.22 0 0 1 .69.21l24.14 15.76a1.21 1.21 0 0 1 .55.79 1.27 1.27 0 0 1 -.18 1 1.29 1.29 0 0 1 -1.74.36l-24.15-15.82a1.23 1.23 0 0 1 -.54-.79 1.23 1.23 0 0 1 .18-.97z"/></g></svg>