<svg viewBox="0 0 141.73 141.73" xmlns="http://www.w3.org/2000/svg"><g fill="#a21c26"><path d="m51.35 95.51a1.54 1.54 0 0 0 1.09.45 1.51 1.51 0 0 0 1.08-.45 1.53 1.53 0 0 0 0-2.17l-9.87-9.88 9.87-9.87a1.54 1.54 0 0 0 .48-1.09 1.51 1.51 0 0 0 -.45-1.08 1.57 1.57 0 0 0 -2.17 0l-11 11a1.53 1.53 0 0 0 0 2.17z"/><path d="m36.73 53.89h1.9a1.54 1.54 0 1 0 0-3.07h-1.9a1.54 1.54 0 1 0 0 3.07z"/><path d="m90.32 83.46-9.87 9.88a1.54 1.54 0 0 0 1.09 2.66 1.51 1.51 0 0 0 1.08-.45l11-11a1.53 1.53 0 0 0 0-2.17l-11-11a1.57 1.57 0 0 0 -2.17 0 1.51 1.51 0 0 0 -.45 1.12 1.54 1.54 0 0 0 .45 1.09z"/><path d="m60.5 95.78a1.47 1.47 0 0 0 .71.18 1.55 1.55 0 0 0 1.36-.82l11.55-21.92a1.54 1.54 0 0 0 .11-1.17 1.54 1.54 0 0 0 -2.83-.26l-11.55 21.92a1.54 1.54 0 0 0 .65 2.07z"/><path d="m44.5 53.89h1.91a1.54 1.54 0 0 0 0-3.07h-1.91a1.54 1.54 0 0 0 0 3.07z"/><path d="m109.64 39.82h-72a1.53 1.53 0 0 0 -1.53 1.53v4.19h-5.11a1.54 1.54 0 0 0 -1.54 1.53v60.16a1.54 1.54 0 0 0 1.54 1.54h72a1.54 1.54 0 0 0 1.53-1.54v-4.23h5.14a1.52 1.52 0 0 0 1.53-1.53v-60.12a1.53 1.53 0 0 0 -1.56-1.53zm-8.21 21.25v44.63h-68.89v-44.63zm0-12.46v9.39h-68.89v-9.4zm1.57-3.07h-63.78v-2.65h68.88v57.11h-3.6v-52.93a1.54 1.54 0 0 0 -1.5-1.53z"/><path d="m52.27 53.89h1.91a1.54 1.54 0 0 0 0-3.07h-1.91a1.54 1.54 0 0 0 0 3.07z"/></g></svg>