<svg version="1.1" id="Uploaded to svgrepo.com" xmlns="http://www.w3.org/2000/svg" xmlns:xlink="http://www.w3.org/1999/xlink" x="0px" y="0px"
	 width="64px" height="64px" viewBox="0 0 64 64" style="enable-background:new 0 0 64 64;" xml:space="preserve">
<style type="text/css">
	.fandom_drie{fill:#BE9148;}
	.fandom_vier{fill:#FFC865;}
	.fandom_vijf{fill:#018273;}
	.fandom_zes{fill:#00B3AA;}
	.fandom_negen{fill:#685683;}
	.fandom_tien{fill:#8579A3;}
	.fandom_dertien{fill:#AA9991;}
	.fandom_vijftien{fill:#3A3A3A;}
	.fandom_negentien{fill:#CCCCCC;}
	.st0{fill:#FF786E;}
	.st1{fill:#BE5652;}
	.st2{fill:#644638;}
	.st3{fill:#4B322A;}
	.st4{fill:#EFEAE0;}
	.st5{fill:#808080;}
	.st6{fill:#666666;}
	.st7{fill:#6BC4D2;}
	.st8{fill:#508D9B;}
	.st9{fill:#FFFAFA;}
	.st10{fill:#4D4D4D;}
</style>
<g>
	<g>
		<path class="fandom_tien" d="M32,7C18.193,7,7,18.193,7,32h50C57,18.193,45.807,7,32,7z"/>
		<path class="fandom_negen" d="M32,57c13.807,0,25-11.193,25-25H7C7,45.807,18.193,57,32,57z"/>
	</g>
	<g>
		<path class="fandom_dertien" d="M23.276,30.914c-0.334-2.031-4.603-2.777-7.707-3.052c-3.305,1.36-9.81,4.341-9.81,4.341
			l-0.286,0.421c1.77-0.432,3.973-1.284,5.313-0.026c0.935,0.878,2.095,2.107,2.562,2.945c1.394,1.18,2.337,2.252,3.441,3.931
			c1.474,2.242,4.669,3.395,7.521,3.432c1.27,0.016,3.617-0.77,4.862-1.045C27.396,40.047,23.723,33.631,23.276,30.914z"/>
		<path class="fandom_negentien" d="M37.543,39c0.93-0.576,1.031-1.297,0.592-2.025c-1.052-1.669-1.745-3.222-2.49-5.042
			c-0.38-0.929-1.219-2.174-2.225-2.489c-1.674-0.524-4.894,0.168-5.131-2.325c-0.077-0.809-0.318-1.753-1.214-2.061
			c-2.751-0.945-6.281,0.654-11.507,2.804c3.105,0.275,7.373,1.021,7.707,3.052c0.448,2.723,4.138,9.164,5.908,10.961
			C29.184,41.875,34.918,40.625,37.543,39z"/>
		<path class="fandom_zes" d="M39.661,40.818c-0.943,1.902-2.149,3.641-3.651,5.154c-0.966,0.973-2.663-0.347-1.689-1.328
			c0.31-0.312,2.104-2.2,1.687-2.338c-2.05,1.783-3.831,3.837-5.31,6.205c-0.735,1.177-2.414-0.167-1.689-1.328
			c0.933-1.495,1.985-2.882,3.146-4.16c-0.358,0.207-0.716,0.412-1.066,0.639c-1,0.648-2.893-0.757-0.694-2.076
			c1.828-0.461,5.277-1.428,7.148-2.586c0.93-0.576,1.031-1.297,0.592-2.025c-1.052-1.669-1.745-3.222-2.49-5.042
			c-0.38-0.929-1.219-2.174-2.225-2.489c-1.674-0.524-4.894,0.168-5.131-2.325c-0.077-0.81-0.318-1.753-1.214-2.061
			c-2.864-0.984-6.684,0.915-9.312,1.92c-3.769,1.441-12.004,5.224-12.004,5.224l-0.286,0.421L4.456,32.82
			c-0.878,0.088-1.601-1.02-0.959-1.732c1.942-2.153,2.62-4.841,3.344-7.409c1.338,0.506,2.542,1.168,3.336,2.486
			c0.13,0.215,0.516,0.274,0.7,0.099l3.517-2.981c0.474-0.475,0.898-0.842,0.704-1.586c-1.026-3.94,2.633-3.411,4.697-3.727
			c1.739-0.267,5.556-2.823,6.495-4.737c0,0,1.371,0.691,1.782,1.784c1.566,4.163,4.785,1.535,7.32,2.13
			c0.725,0.17,2.891-0.345,3.836-0.292c1.456,0.083,4.625,2.466,5.979,3.65l0.016-0.006c8.208,8.083,2.734,13.607,2.734,13.607
			c-1.014-4.393-4.059-3.209-6.542-3.482c-1.444-0.159-1.546-2.023-3.031-1.438c0,0-0.828,0.628-0.156,1.25
			c1.292,1.196,1.225,1.71,2.422,1.797c2.278,0.166,5.298-0.597,5.176,3.007c-0.019,0.556-0.223,1.243-0.476,1.901
			C45.352,37.142,41.998,39.66,39.661,40.818z M26.228,42.911c0,0-1.741-0.002-1.919-0.004c-2.852-0.037-6.047-1.191-7.521-3.432
			c-1.103-1.678-2.046-2.749-3.439-3.929c0.133,0.487,0.105,1.036-0.156,1.699c-0.588,1.492,2.438,4.057,2.635,4.966l1.076,0.361
			c0.231,0.145,0.24,0.506,0.084,0.702c-1.1,1.39-1.709,2.627-1.938,3.392c0.703-0.394,1.399-0.8,2.082-1.228
			c0.525,1.054,1.368,2.029,1.803,4.098c0.283,1.344,2.421,1.125,2.137-0.228c-0.214-1.016-0.53-2.063-0.995-2.992
			c1.725,0.679,3.359,1.649,5.182,2.069c1.354,0.312,1.669-1.814,0.329-2.123c-1.254-0.289-2.407-0.837-3.566-1.372
			c1.293,0.048,2.586,0.096,3.878,0.143C27.27,45.084,27.61,42.962,26.228,42.911z"/>
		<path class="fandom_vier" d="M11.005,16.93c-0.014,2.209-1.816,3.989-4.025,3.975s-3.989-1.816-3.975-4.025
			s1.816-3.989,4.025-3.975S11.019,14.72,11.005,16.93z M18.128,8.501c-2.209,0.024-3.98,1.834-3.957,4.043
			c0.024,2.209,1.834,3.98,4.043,3.957c2.209-0.024,3.98-1.834,3.957-4.043S20.337,8.477,18.128,8.501z"/>
		<path class="fandom_vijf" d="M30.379,22.075c-1.476,1.8-2.981,1.105-3.796-0.228c-0.41-0.67-0.696-1.414-1.041-2.118
			c-0.314-0.641-0.786-1.513-0.586-2.253c0.342-1.26,3.531,0.644,4.206,1.111C30.31,19.382,31.215,20.904,30.379,22.075z
			 M21.937,11.162c0.723,2.024-0.287,4.27-2.301,5.064c-2.055,0.81-4.378-0.199-5.188-2.255c-0.343-0.869-0.36-1.786-0.11-2.616
			c-0.698,0.857-0.989,1.851-0.917,2.967c-0.123,0.451-0.521,1.373-0.571,1.392c-1.137-1.062-1.729-1.784-3.257-1.86
			c0.487,0.413,0.883,0.948,1.134,1.584c0.81,2.055-0.199,4.378-2.255,5.188c-0.875,0.345-1.799,0.36-2.634,0.104
			c0.466,0.653,0.852,0.944,1.433,1.492c-0.151,0.478-0.291,0.966-0.429,1.457c1.338,0.506,2.542,1.168,3.336,2.486
			c0.13,0.215,0.516,0.274,0.7,0.099l3.517-2.981c0.474-0.475,0.898-0.842,0.704-1.586c-1.026-3.94,2.633-3.411,4.697-3.727
			c1.73-0.265,5.551-2.812,6.495-4.737C26.292,13.233,23.715,12.266,21.937,11.162z M15.828,42.211l-4.89,3.303
			c-2.317,1.611-0.964,3.879,1.829,2.371l2.312-1.321c0,0,1.119-2.292,1.909-3.289c0.156-0.197,0.147-0.558-0.084-0.702
			L15.828,42.211z M38.231,30.438c1.292,1.196,1.225,1.71,2.422,1.797c2.278,0.166,5.298-0.597,5.176,3.007
			c-0.019,0.556-0.223,1.243-0.476,1.901c1.343-1.049,2.583-2.146,3.549-3.167c-0.102,0.967-0.202,1.935-0.295,2.903
			c-0.133,1.376,1.99,1.708,2.123,0.329l0.439-3.66c2.078-1.352,6.552,0.074,8.626,0.813c1.299,0.463,2.163-1.504,0.856-1.97
			c-1.513-0.539-3.368-1.195-5.217-1.489c1.609-0.79,3.61-1.499,6.448-1.78c1.381-0.137,1.148-2.273-0.228-2.137
			c-1.001,0.099-4.768,0.667-7.449,1.41c1.031-1.428,1.576-3.271,2.048-5.05c1.572-0.901,3.204-2.064,3.776-3.539
			c0.828-2.135-0.839-3.095-2.61-4.049c-2.349-1.266-4.575-1.883-7.045-0.615c-2.028,1.041-3.831,3.359-5.147,5.36
			c8.208,8.083,2.734,13.607,2.734,13.607c-0.291-1.261-0.951-2.447-1.806-2.938c-1.333-0.766-3.266-0.382-4.735-0.544
			c-1.444-0.159-1.546-2.023-3.031-1.438C38.387,29.188,37.559,29.816,38.231,30.438z M41.267,24.428
			c0.007-0.201,0.004-0.403-0.01-0.604c-0.043-1.514,1.109-1.749,2.372-1.697c0.387,0.016,0.804-0.429,0.476-0.795
			c-1.291-1.441-2.62-2.844-3.964-4.234c-0.286-0.115-0.56-0.202-0.802-0.233c-0.003,0-0.007-0.001-0.01-0.001
			c-0.03-0.004-0.06-0.006-0.089-0.008c-0.003,0-0.007-0.001-0.011-0.001c-0.001,0-0.002,0-0.002,0c-0.013,0-0.086-0.002-0.21-0.003
			c-1.025,0.018-2.948,0.453-3.623,0.295c-0.973-0.228-2.046,0.018-3.089,0.173c0.865,1.541,1.94,3.975,2.173,6.792
			c0.762,0.389,1.672,0.59,2.396,0.831c1.429,0.476,2.716,1.166,4.052,0.235C41.145,25.025,41.229,24.671,41.267,24.428z"/>
		<path class="fandom_vijftien" d="M32.306,17.32c-0.87,0.129-1.717,0.195-2.467-0.132c1.127,1.559,5.964,9.118-0.783,15.836
			c-4.287,4.27-10.069,4.507-15.706,2.52c0.168,1.206-0.16,1.243-0.225,2.011c6.256,2.052,12.616,1.591,17.342-3.113
			C36.96,27.977,34.153,20.611,32.306,17.32z"/>
		<path class="fandom_drie" d="M10.989,17.258c-0.132,1.459-1.061,2.794-2.516,3.367c-2.055,0.81-4.378-0.199-5.188-2.255
			c-0.574-1.455-0.252-3.035,0.725-4.127C3.67,17.994,8.392,20.161,10.989,17.258z M15.174,9.841
			c-0.977,1.091-1.298,2.671-0.725,4.127c0.81,2.055,3.133,3.065,5.188,2.255c1.455-0.574,2.385-1.909,2.516-3.367
			C19.557,15.758,14.835,13.591,15.174,9.841z"/>
	</g>
</g>
</svg>